<svg version="1.1" xmlns="http://www.w3.org/2000/svg" viewBox="-7.550001 -3.034417854316912 15.100002 6.068835708633824" fill="none" stroke="black" stroke-width="0.6%" vector-effect="non-scaling-stroke">
    <path d="M -4.63155 -1.72768 A 6.55 1.04728 360 0 1 6.55 -0.98713 A 6.55 1.04728 360 0 1 -6.55 -0.98713 A 6.55 1.04728 360 0 1 -4.63155 -1.72768 Z" />
    <path d="M -6.55 0.98713 A 6.55 1.04728 180 0 0 6.55 0.98713" />
    <path d="M -0.905 -0.98713 A 0.905 0.1447 180 0 0 0.905 -0.98713" />
    <path d="M -0.63993 -1.58302 A 0.905 0.1447 360 0 1 0.905 -1.4807 L 0.905 -0.98713" />
    <path d="M 0.905 -1.4807 A 0.905 0.1447 360 0 1 -0.905 -1.4807 L -0.905 -0.98713" />
    <path d="M -0.905 -1.4807 A 0.905 0.1447 360 0 1 -0.63993 -1.58302" />
    <path d="M -6.55 -0.98713 L -6.55 0.98713" />
    <path d="M 6.55 -0.98713 L 6.55 0.98713" />
</svg>