<svg version="1.1" xmlns="http://www.w3.org/2000/svg" viewBox="-23.27386460737625 -2.237271824327938 46.5477292147525 5.235260338382003" fill="none" stroke="black" stroke-width="0.6%" vector-effect="non-scaling-stroke">
    <path d="M -22.27386 0.99899 L -22.27386 0 L 0 0.99899 L 22.27386 0 L 9.58733 -0.569" />
    <path d="M 0 1.99799 L 0 0.99899" />
    <path d="M -22.27386 0.99899 L 0 1.99799 L 22.27386 0.99899 L 22.27386 0" />
    <path d="M 0 -0.99899 L -0.10215 -0.99441" />
    <path d="M -9.02438 -0.59425 L -9.79146 -0.55984" />
    <path d="M -16.63239 -0.25302 L -22.27386 0" />
    <path d="M 1.36833 -0.93762 L 0 -0.99899" />
    <path d="M -16.63239 -0.15496 L -11.1981 0.08877 L -11.1981 -0.91022 L -9.79146 -1.14567 L -15.94145 -1.21958 L -16.3497 -1.20127 L -16.63239 -1.15395 L -11.1981 -0.91022" />
    <path d="M -11.1981 0.08877 L -9.79146 -0.14668 L -9.79146 -1.14567" />
    <path d="M -1.41641 0.06614 L -3.59012 0.43 L -3.59012 -0.569 L -9.02438 -0.81273 L -6.53093 -1.2301 L -0.10215 -1.15284 L -3.59012 -0.569" />
    <path d="M -3.59012 0.43 L -9.02438 0.18627 L -9.02438 -0.81273" />
    <path d="M 3.8411 0.76329 L 4.14729 0.74956 L 4.14729 -0.24944 L 9.58733 -1.16001 L 3.15852 -1.23727 L -1.41641 -0.47151 L 3.8411 -0.2357 L 4.14729 -0.24944" />
    <path d="M 4.14729 0.74956 L 9.58733 -0.16102 L 9.58733 -1.16001" />
    <path d="M -1.41641 0.52749 L 3.8411 0.76329 L 3.8411 -0.2357" />
    <path d="M -16.63239 -0.15496 L -16.63239 -1.15395" />
    <path d="M -0.10215 -0.69149 L -0.10215 -1.15284" />
    <path d="M -1.41641 0.52749 L -1.41641 -0.47151" />
</svg>