<svg version="1.1" xmlns="http://www.w3.org/2000/svg" viewBox="-5.050001 -2.9936213048156377 10.100002 5.987242609631275" fill="none" stroke="black" stroke-width="0.6%" vector-effect="non-scaling-stroke">
    <path d="M -2.86378 -1.69304 A 4.05 1.02626 360 0 1 4.05 -0.96736 A 4.05 1.02626 360 0 1 -4.05 -0.96736 A 4.05 1.02626 360 0 1 -2.86378 -1.69304 Z" />
    <path d="M -4.05 0.96736 A 4.05 1.02626 180 0 0 4.05 0.96736" />
    <path d="M -0.905 -0.96736 A 0.905 0.22932 180 0 0 0.905 -0.96736" />
    <path d="M -0.63993 -1.6132 A 0.905 0.22932 360 0 1 0.905 -1.45104 L 0.905 -0.96736" />
    <path d="M 0.905 -1.45104 A 0.905 0.22932 360 0 1 -0.905 -1.45104 L -0.905 -0.96736" />
    <path d="M -0.905 -1.45104 A 0.905 0.22932 360 0 1 -0.63993 -1.6132" />
    <path d="M -4.05 -0.96736 L -4.05 0.96736" />
    <path d="M 4.05 -0.96736 L 4.05 0.96736" />
</svg>