<svg version="1.1" xmlns="http://www.w3.org/2000/svg" viewBox="-4.000001000000001 -2.9429393284536878 8.000002000000002 5.8858786569073756" fill="none" stroke="black" stroke-width="0.6%" vector-effect="non-scaling-stroke">
    <path d="M -2.12132 -1.65 A 3 1.00015 360 0 1 3 -0.94279 A 3 1.00015 360 0 1 -3 -0.94279 A 3 1.00015 360 0 1 -2.12132 -1.65 Z" />
    <path d="M -3 0.94279 A 3 1.00015 180 0 0 3 0.94279" />
    <path d="M -0.905 -0.94279 A 0.905 0.30171 180 0 0 0.905 -0.94279" />
    <path d="M -0.63993 -1.62753 A 0.905 0.30171 360 0 1 0.905 -1.41419 L 0.905 -0.94279" />
    <path d="M 0.905 -1.41419 A 0.905 0.30171 360 0 1 -0.905 -1.41419 L -0.905 -0.94279" />
    <path d="M -0.905 -1.41419 A 0.905 0.30171 360 0 1 -0.63993 -1.62753" />
    <path d="M -3 -0.94279 L -3 0.94279" />
    <path d="M 3 -0.94279 L 3 0.94279" />
</svg>