<svg version="1.1" xmlns="http://www.w3.org/2000/svg" viewBox="-5.500001000000001 -3.0059057976267862 11.000002000000002 6.0118115952535724" fill="none" stroke="black" stroke-width="0.6%" vector-effect="non-scaling-stroke">
    <path d="M -3.18198 -1.70347 A 4.5 1.03259 360 0 1 4.5 -0.97332 A 4.5 1.03259 360 0 1 -4.5 -0.97332 A 4.5 1.03259 360 0 1 -3.18198 -1.70347 Z" />
    <path d="M -4.5 0.97332 A 4.5 1.03259 180 0 0 4.5 0.97332" />
    <path d="M -0.905 -0.97332 A 0.905 0.20766 180 0 0 0.905 -0.97332" />
    <path d="M -0.63993 -1.60682 A 0.905 0.20766 360 0 1 0.905 -1.45998 L 0.905 -0.97332" />
    <path d="M 0.905 -1.45998 A 0.905 0.20766 360 0 1 -0.905 -1.45998 L -0.905 -0.97332" />
    <path d="M -0.905 -1.45998 A 0.905 0.20766 360 0 1 -0.63993 -1.60682" />
    <path d="M -4.5 -0.97332 L -4.5 0.97332" />
    <path d="M 4.5 -0.97332 L 4.5 0.97332" />
</svg>