<svg version="1.1" xmlns="http://www.w3.org/2000/svg" viewBox="-6.000001000000001 -3.016024832340043 12.000002000000002 6.032049664680086" fill="none" stroke="black" stroke-width="0.6%" vector-effect="non-scaling-stroke">
    <path d="M -3.53553 -1.71206 A 5 1.0378 360 0 1 5 -0.97822 A 5 1.0378 360 0 1 -5 -0.97822 A 5 1.0378 360 0 1 -3.53553 -1.71206 Z" />
    <path d="M -5 0.97822 A 5 1.0378 180 0 0 5 0.97822" />
    <path d="M -0.905 -0.97822 A 0.905 0.18784 180 0 0 0.905 -0.97822" />
    <path d="M -0.63993 -1.60016 A 0.905 0.18784 360 0 1 0.905 -1.46733 L 0.905 -0.97822" />
    <path d="M 0.905 -1.46733 A 0.905 0.18784 360 0 1 -0.905 -1.46733 L -0.905 -0.97822" />
    <path d="M -0.905 -1.46733 A 0.905 0.18784 360 0 1 -0.63993 -1.60016" />
    <path d="M -5 -0.97822 L -5 0.97822" />
    <path d="M 5 -0.97822 L 5 0.97822" />
</svg>