<svg version="1.1" xmlns="http://www.w3.org/2000/svg" viewBox="-4.550001 -2.9745816028850207 9.100002 5.949163205770041" fill="none" stroke="black" stroke-width="0.6%" vector-effect="non-scaling-stroke">
    <path d="M -2.51023 -1.67687 A 3.55 1.01645 360 0 1 3.55 -0.95813 A 3.55 1.01645 360 0 1 -3.55 -0.95813 A 3.55 1.01645 360 0 1 -2.51023 -1.67687 Z" />
    <path d="M -3.55 0.95813 A 3.55 1.01645 180 0 0 3.55 0.95813" />
    <path d="M -0.905 -0.95813 A 0.905 0.25912 180 0 0 0.905 -0.95813" />
    <path d="M -0.63993 -1.62043 A 0.905 0.25912 360 0 1 0.905 -1.4372 L 0.905 -0.95813" />
    <path d="M 0.905 -1.4372 A 0.905 0.25912 360 0 1 -0.905 -1.4372 L -0.905 -0.95813" />
    <path d="M -0.905 -1.4372 A 0.905 0.25912 360 0 1 -0.63993 -1.62043" />
    <path d="M -3.55 -0.95813 L -3.55 0.95813" />
    <path d="M 3.55 -0.95813 L 3.55 0.95813" />
</svg>